<svg width="28" height="28" viewBox="0 0 28 28" fill="none" xmlns="http://www.w3.org/2000/svg">
  <path
    d="M13.993 13.9513C15.6021 13.9513 16.9974 13.3637 18.1374 12.2007C19.2774 11.0377 19.8534 9.62023 19.8534 7.97261C19.8534 6.33105 19.2774 4.90756 18.1374 3.74454C16.9974 2.58757 15.6021 2 13.993 2C12.3839 2 10.9886 2.58757 9.84853 3.75059C8.70851 4.91362 8.13257 6.33105 8.13257 7.97261C8.13257 9.61417 8.70851 11.0377 9.84853 12.2007C10.9886 13.3637 12.3839 13.9513 13.993 13.9513ZM10.8579 4.78035C11.7308 3.88991 12.758 3.45378 13.993 3.45378C15.228 3.45378 16.2552 3.88991 17.128 4.78035C18.0009 5.67079 18.4284 6.71873 18.4284 7.97867C18.4284 9.23861 18.0009 10.2865 17.128 11.177C16.2552 12.0674 15.228 12.5036 13.993 12.5036C12.758 12.5036 11.7308 12.0674 10.8579 11.177C9.9851 10.2865 9.55759 9.23861 9.55759 7.97867C9.55759 6.71873 9.9851 5.67079 10.8579 4.78035Z"
    fill="currentColor" />
  <path
    d="M23.6653 17.9371C23.505 17.4343 23.2972 16.9436 23.03 16.4651C22.7569 15.9745 22.4362 15.5444 22.074 15.193C21.694 14.8235 21.2309 14.5267 20.6965 14.3087C20.1621 14.0906 19.5743 13.9816 18.939 13.9816C18.6896 13.9816 18.4521 14.0845 17.989 14.3935C17.704 14.5812 17.3715 14.8054 16.9974 15.0477C16.6768 15.2536 16.2493 15.4475 15.7149 15.6231C15.1924 15.7927 14.6639 15.8836 14.1474 15.8836C13.6248 15.8836 13.0964 15.7988 12.5798 15.6231C12.0454 15.4475 11.6179 15.2536 11.2973 15.0477C10.9292 14.8054 10.5967 14.5873 10.3057 14.3935C9.8426 14.0845 9.60509 13.9816 9.35571 13.9816C8.72039 13.9816 8.13257 14.0906 7.59818 14.3087C7.0638 14.5267 6.60067 14.8235 6.22066 15.193C5.85847 15.5444 5.53784 15.9745 5.26471 16.4651C5.00345 16.9376 4.7897 17.4343 4.62939 17.9371C4.46907 18.4216 4 20.2268 4 20.7295C4 22.0258 4.40376 23.0737 5.19939 23.8491C5.98316 24.6123 7.02818 25 8.29288 25H20.0018C21.2665 25 22.3056 24.6123 23.0953 23.8491C23.891 23.0737 24.2947 22.0258 24.2947 20.7295C24.2888 20.2268 23.8197 18.4216 23.6653 17.9371ZM22.1097 22.789C21.5931 23.2918 20.8984 23.5402 20.0018 23.5402H8.28694C7.39037 23.5402 6.69567 23.2979 6.1791 22.789C5.66847 22.2923 5.41909 21.62 5.41909 20.7235C5.41909 20.257 5.84066 18.7972 5.97722 18.3732C6.10191 17.9673 6.28004 17.5676 6.49379 17.1799C6.70161 16.8104 6.93911 16.4954 7.20037 16.241C7.44381 16.0047 7.75256 15.8048 8.11476 15.6595C8.4532 15.5262 8.82727 15.4475 9.23696 15.4414C9.28446 15.4656 9.37353 15.5201 9.52197 15.6171C9.81291 15.8109 10.1514 16.035 10.5254 16.2773C10.947 16.5499 11.4873 16.7983 12.1345 17.0103C12.7995 17.2283 13.4705 17.3374 14.1414 17.3374C14.8124 17.3374 15.4893 17.2283 16.1483 17.0103C16.7955 16.7983 17.3358 16.5499 17.7574 16.2773C18.1374 16.029 18.4699 15.8109 18.7609 15.6171C18.9034 15.5201 18.9924 15.4717 19.0459 15.4414C19.4556 15.4535 19.8356 15.5262 20.1681 15.6595C20.5303 15.8048 20.839 15.9987 21.0825 16.241C21.3437 16.4954 21.5812 16.8104 21.789 17.1799C22.0028 17.5676 22.1809 17.9673 22.3056 18.3732C22.4362 18.7972 22.8637 20.257 22.8637 20.7235C22.8637 21.62 22.6203 22.2984 22.1097 22.789Z"
    fill="currentColor" />
  <path
    d="M13.993 13.9513C15.6021 13.9513 16.9974 13.3637 18.1374 12.2007C19.2774 11.0377 19.8534 9.62023 19.8534 7.97261C19.8534 6.33105 19.2774 4.90756 18.1374 3.74454C16.9974 2.58757 15.6021 2 13.993 2C12.3839 2 10.9886 2.58757 9.84853 3.75059C8.70851 4.91362 8.13257 6.33105 8.13257 7.97261C8.13257 9.61417 8.70851 11.0377 9.84853 12.2007C10.9886 13.3637 12.3839 13.9513 13.993 13.9513ZM10.8579 4.78035C11.7308 3.88991 12.758 3.45378 13.993 3.45378C15.228 3.45378 16.2552 3.88991 17.128 4.78035C18.0009 5.67079 18.4284 6.71873 18.4284 7.97867C18.4284 9.23861 18.0009 10.2865 17.128 11.177C16.2552 12.0674 15.228 12.5036 13.993 12.5036C12.758 12.5036 11.7308 12.0674 10.8579 11.177C9.9851 10.2865 9.55759 9.23861 9.55759 7.97867C9.55759 6.71873 9.9851 5.67079 10.8579 4.78035Z"
    stroke="currentColor" stroke-width="0.8" />
  <path
    d="M23.6653 17.9371C23.505 17.4343 23.2972 16.9436 23.03 16.4651C22.7569 15.9745 22.4362 15.5444 22.074 15.193C21.694 14.8235 21.2309 14.5267 20.6965 14.3087C20.1621 14.0906 19.5743 13.9816 18.939 13.9816C18.6896 13.9816 18.4521 14.0845 17.989 14.3935C17.704 14.5812 17.3715 14.8054 16.9974 15.0477C16.6768 15.2536 16.2493 15.4475 15.7149 15.6231C15.1924 15.7927 14.6639 15.8836 14.1474 15.8836C13.6248 15.8836 13.0964 15.7988 12.5798 15.6231C12.0454 15.4475 11.6179 15.2536 11.2973 15.0477C10.9292 14.8054 10.5967 14.5873 10.3057 14.3935C9.8426 14.0845 9.60509 13.9816 9.35571 13.9816C8.72039 13.9816 8.13257 14.0906 7.59818 14.3087C7.0638 14.5267 6.60067 14.8235 6.22066 15.193C5.85847 15.5444 5.53784 15.9745 5.26471 16.4651C5.00345 16.9376 4.7897 17.4343 4.62939 17.9371C4.46907 18.4216 4 20.2268 4 20.7295C4 22.0258 4.40376 23.0737 5.19939 23.8491C5.98316 24.6123 7.02818 25 8.29288 25H20.0018C21.2665 25 22.3056 24.6123 23.0953 23.8491C23.891 23.0737 24.2947 22.0258 24.2947 20.7295C24.2888 20.2268 23.8197 18.4216 23.6653 17.9371ZM22.1097 22.789C21.5931 23.2918 20.8984 23.5402 20.0018 23.5402H8.28694C7.39037 23.5402 6.69567 23.2979 6.1791 22.789C5.66847 22.2923 5.41909 21.62 5.41909 20.7235C5.41909 20.257 5.84066 18.7972 5.97722 18.3732C6.10191 17.9673 6.28004 17.5676 6.49379 17.1799C6.70161 16.8104 6.93911 16.4954 7.20037 16.241C7.44381 16.0047 7.75256 15.8048 8.11476 15.6595C8.4532 15.5262 8.82727 15.4475 9.23696 15.4414C9.28446 15.4656 9.37353 15.5201 9.52197 15.6171C9.81291 15.8109 10.1514 16.035 10.5254 16.2773C10.947 16.5499 11.4873 16.7983 12.1345 17.0103C12.7995 17.2283 13.4705 17.3374 14.1414 17.3374C14.8124 17.3374 15.4893 17.2283 16.1483 17.0103C16.7955 16.7983 17.3358 16.5499 17.7574 16.2773C18.1374 16.029 18.4699 15.8109 18.7609 15.6171C18.9034 15.5201 18.9924 15.4717 19.0459 15.4414C19.4556 15.4535 19.8356 15.5262 20.1681 15.6595C20.5303 15.8048 20.839 15.9987 21.0825 16.241C21.3437 16.4954 21.5812 16.8104 21.789 17.1799C22.0028 17.5676 22.1809 17.9673 22.3056 18.3732C22.4362 18.7972 22.8637 20.257 22.8637 20.7235C22.8637 21.62 22.6203 22.2984 22.1097 22.789Z"
    stroke="currentColor" stroke-width="0.8" />
</svg>