<svg width="29" height="28" viewBox="0 0 29 28" fill="none" xmlns="http://www.w3.org/2000/svg">
  <g clip-path="url(#clip0_10754_34981)">
    <path
      d="M11.7188 22.625H7.1875C5.6375 22.625 4.375 21.3625 4.375 19.8125V11.375H24.0625C24.5812 11.375 25 10.9563 25 10.4375V8.5625C25 5.975 22.9 3.875 20.3125 3.875H19.375V2.9375C19.375 2.41875 18.9562 2 18.4375 2C17.9187 2 17.5 2.41875 17.5 2.9375V3.875H10V2.9375C10 2.41875 9.58125 2 9.0625 2C8.54375 2 8.125 2.41875 8.125 2.9375V3.875H7.1875C4.6 3.875 2.5 5.975 2.5 8.5625V19.8125C2.5 22.4 4.6 24.5 7.1875 24.5H11.7188C12.2375 24.5 12.6562 24.0812 12.6562 23.5625C12.6562 23.0438 12.2375 22.625 11.7188 22.625Z"
      fill="currentColor" />
    <path
      d="M7.1875 15.125C7.70527 15.125 8.125 14.7053 8.125 14.1875C8.125 13.6697 7.70527 13.25 7.1875 13.25C6.66973 13.25 6.25 13.6697 6.25 14.1875C6.25 14.7053 6.66973 15.125 7.1875 15.125Z"
      fill="currentColor" />
    <path
      d="M10.9375 15.125C11.4553 15.125 11.875 14.7053 11.875 14.1875C11.875 13.6697 11.4553 13.25 10.9375 13.25C10.4197 13.25 10 13.6697 10 14.1875C10 14.7053 10.4197 15.125 10.9375 15.125Z"
      fill="currentColor" />
    <path
      d="M7.1875 18.875C7.70527 18.875 8.125 18.4553 8.125 17.9375C8.125 17.4197 7.70527 17 7.1875 17C6.66973 17 6.25 17.4197 6.25 17.9375C6.25 18.4553 6.66973 18.875 7.1875 18.875Z"
      fill="currentColor" />
    <path
      d="M10.9375 18.875C11.4553 18.875 11.875 18.4553 11.875 17.9375C11.875 17.4197 11.4553 17 10.9375 17C10.4197 17 10 17.4197 10 17.9375C10 18.4553 10.4197 18.875 10.9375 18.875Z"
      fill="currentColor" />
    <path
      d="M19.9375 12.875C16.3187 12.875 13.375 15.8187 13.375 19.4375C13.375 23.0562 16.3187 26 19.9375 26C23.5562 26 26.5 23.0562 26.5 19.4375C26.5 15.8187 23.5562 12.875 19.9375 12.875ZM19.9375 24.125C17.35 24.125 15.25 22.025 15.25 19.4375C15.25 16.85 17.35 14.75 19.9375 14.75C22.525 14.75 24.625 16.85 24.625 19.4375C24.625 22.025 22.525 24.125 19.9375 24.125Z"
      fill="currentColor" />
    <path
      d="M21.8125 18.5H20.875V17.5625C20.875 17.0437 20.4562 16.625 19.9375 16.625C19.4187 16.625 19 17.0437 19 17.5625V19.4375C19 19.9562 19.4187 20.375 19.9375 20.375H21.8125C22.3312 20.375 22.75 19.9562 22.75 19.4375C22.75 18.9188 22.3312 18.5 21.8125 18.5Z"
      fill="currentColor" />
  </g>
  <defs>
    <clipPath id="clip0_10754_34981">
      <rect width="24" height="24" fill="white" transform="translate(2.5 2)" />
    </clipPath>
  </defs>
</svg>