<svg width="48" height="48" viewBox="0 0 48 48" fill="none" xmlns="http://www.w3.org/2000/svg">
<rect x="0.5" y="0.5" width="47" height="47" rx="9.5" fill="white" stroke="#EE0033"/>
<path d="M37.6979 21.9084C37.2816 20.0282 35.4583 18.3054 33.5727 17.9395C32.6581 17.7561 32.0764 16.7668 32.0494 15.8344C32.042 15.5763 32.0092 15.3181 31.9506 15.0633C31.7441 14.1659 31.2305 13.3688 30.4985 12.81C29.7665 12.2512 28.8623 11.9658 27.9421 12.0033C27.022 12.0407 26.1439 12.3985 25.4597 13.0149C24.9161 13.5094 24.275 13.8847 23.5777 14.1167C22.8804 14.3486 22.1423 14.4321 21.4108 14.3617C20.6782 14.2976 19.9671 14.0809 19.3233 13.7254C18.6795 13.3699 18.1173 12.8836 17.6728 12.2977C17.5493 12.1466 17.3718 12.0494 17.1778 12.0268C16.9839 12.0041 16.7888 12.0577 16.6337 12.1763C16.4786 12.2949 16.3757 12.4692 16.3468 12.6623C16.3179 12.8554 16.3651 13.0521 16.4786 13.211C17.0526 13.9583 17.7746 14.5791 18.5995 15.0345C19.4244 15.49 20.3345 15.7703 21.2727 15.8578C22.2112 15.943 23.1571 15.8335 24.0513 15.5363C24.9456 15.2391 25.7688 14.7606 26.4697 14.1307C26.9279 13.7212 27.5232 13.4985 28.1377 13.5067C28.7522 13.5149 29.3413 13.7532 29.7886 14.1748C30.2554 14.6176 30.5285 15.2267 30.5487 15.8698C30.5864 17.0767 29.199 17.5669 27.9924 17.5214C26.783 17.4758 25.539 17.448 24.4245 17.448C21.0256 17.448 16.4201 17.7085 15.271 17.9384C13.3854 18.3038 11.5642 20.0271 11.1457 21.9074C10.9029 23.0505 10.6703 24.6036 10.6665 26.7245C10.6628 28.8454 10.9029 30.3985 11.1404 31.5406C11.5567 33.4209 13.38 35.1442 15.2656 35.5095C16.4152 35.7395 21.0202 36 24.4191 36C27.8181 36 32.4236 35.7395 33.5727 35.5095C35.4583 35.1442 37.2794 33.4209 37.6979 31.5406C37.9354 30.3985 38.168 28.8454 38.1717 26.7245C38.1755 24.6036 37.9354 23.0505 37.6979 21.9084ZM32.1098 21.1456C32.1105 21.1456 32.1113 21.1455 32.1121 21.1454C32.3784 21.1064 32.6476 21.0902 32.9167 21.0972C33.1899 21.1008 33.4623 21.127 33.7311 21.1757C33.8975 21.216 34.0501 21.2998 34.1735 21.4184C34.2968 21.5371 34.3865 21.6863 34.4333 21.851C34.4925 22.1177 34.5285 22.3891 34.5407 22.6621C34.5564 22.9322 34.5479 23.2031 34.5155 23.4717C34.4867 23.633 34.4097 23.7818 34.2946 23.8984C34.1795 24.0151 34.0317 24.094 33.8708 24.125C33.599 24.1653 33.3242 24.1833 33.0494 24.1787C32.7731 24.178 32.4973 24.1548 32.2248 24.1094C32.0589 24.0729 31.9066 23.9907 31.7852 23.872C31.6637 23.7533 31.578 23.6029 31.5377 23.4379C31.438 22.8979 31.4181 22.3462 31.4786 21.8005C31.5039 21.64 31.5778 21.4911 31.6904 21.374C31.8027 21.2573 31.9479 21.1777 32.1067 21.1459C32.1077 21.1457 32.1087 21.1456 32.1098 21.1456ZM27.2126 21.7607C27.2637 21.4384 27.5457 21.1477 27.8605 21.0935C28.128 21.0513 28.3987 21.0324 28.6695 21.0371C28.9418 21.038 29.2135 21.0619 29.4818 21.1085C29.6474 21.147 29.7991 21.2305 29.9201 21.3499C30.0411 21.4693 30.1266 21.6198 30.1673 21.7849C30.2204 22.0558 30.2504 22.3308 30.257 22.6068C30.267 22.8811 30.2532 23.1558 30.2156 23.4277C30.1848 23.5911 30.1059 23.7416 29.989 23.86C29.8722 23.9783 29.7227 24.0592 29.5597 24.0922C29.0139 24.174 28.4588 24.1717 27.9137 24.0852C27.7483 24.0492 27.5967 23.9667 27.4768 23.8473C27.3568 23.728 27.2736 23.5767 27.2368 23.4115C27.1897 23.1388 27.1651 22.8626 27.1632 22.5859C27.1575 22.3099 27.174 22.034 27.2126 21.7607ZM26.9139 25.2252C26.9139 25.2261 26.9146 25.2269 26.9155 25.2271C27.0801 25.2627 27.231 25.3449 27.3503 25.4638C27.4699 25.5831 27.5527 25.7343 27.5887 25.8994C27.6753 26.4461 27.6753 27.003 27.5887 27.5497C27.5527 27.7148 27.4699 27.866 27.3503 27.9853C27.2306 28.1045 27.0791 28.1868 26.9139 28.2223C26.3669 28.3071 25.8101 28.3071 25.2631 28.2223C25.098 28.1869 24.9467 28.1046 24.8275 27.9851C24.7082 27.8657 24.6261 27.7143 24.591 27.5491C24.5065 27.0016 24.5065 26.4443 24.591 25.8967C24.626 25.7315 24.7081 25.58 24.8273 25.4606C24.9466 25.3411 25.098 25.2588 25.2631 25.2236C25.8096 25.1388 26.3658 25.1387 26.9123 25.2233C26.9132 25.2235 26.9139 25.2243 26.9139 25.2252ZM22.9456 21.7553C23.0047 21.433 23.2953 21.1386 23.6122 21.0811C24.1491 20.9952 24.6962 20.9952 25.233 21.0811C25.55 21.1386 25.8406 21.4325 25.8997 21.7553C25.9887 22.3022 25.9928 22.8596 25.912 23.4078C25.8784 23.5725 25.7974 23.7239 25.679 23.8433C25.5605 23.9626 25.4098 24.0449 25.2454 24.0798C24.7001 24.1636 24.1452 24.1636 23.5999 24.0798C23.4353 24.0452 23.2845 23.9632 23.1658 23.844C23.0472 23.7248 22.966 23.5736 22.9321 23.4089C22.8514 22.8607 22.8566 22.3022 22.9456 21.7553ZM18.5888 22.6068C18.5954 22.3308 18.6254 22.0558 18.6785 21.7849C18.7191 21.6199 18.8046 21.4694 18.9255 21.35C19.0464 21.2306 19.198 21.147 19.3634 21.1085C19.6315 21.062 19.9031 21.0381 20.1752 21.0371C20.446 21.0324 20.7167 21.0513 20.9842 21.0935C21.299 21.1472 21.5811 21.4389 21.6321 21.7607C21.6706 22.034 21.6873 22.3099 21.682 22.5859C21.6801 22.8626 21.6555 23.1388 21.6085 23.4115C21.5717 23.5767 21.4884 23.728 21.3685 23.8473C21.2485 23.9667 21.0969 24.0492 20.9316 24.0852C20.6594 24.1301 20.3839 24.1524 20.108 24.1518C19.8327 24.1549 19.5576 24.1349 19.2856 24.0922C19.1225 24.0592 18.9731 23.9783 18.8562 23.86C18.7394 23.7416 18.6605 23.5911 18.6296 23.4277C18.5919 23.1558 18.579 22.8811 18.5888 22.6068ZM14.3019 22.6605C14.3144 22.3876 14.3503 22.1162 14.4093 21.8493C14.4561 21.6846 14.546 21.5352 14.6697 21.4167C14.7934 21.2982 14.9464 21.2148 15.113 21.1751C15.3821 21.1271 15.6547 21.1016 15.928 21.0989C16.1975 21.0918 16.4671 21.108 16.7338 21.1472C16.8931 21.1789 17.0389 21.2588 17.1514 21.376C17.2639 21.4932 17.3377 21.6421 17.3629 21.8026C17.3949 22.0741 17.4052 22.3477 17.3935 22.6208C17.3853 22.8958 17.3553 23.1697 17.3038 23.44C17.2635 23.605 17.1778 23.7554 17.0563 23.8741C16.9349 23.9928 16.7826 24.0751 16.6167 24.1115C16.3441 24.1567 16.0684 24.1798 15.7921 24.1808C15.5173 24.1854 15.2425 24.1675 14.9707 24.1271C14.8097 24.0963 14.6619 24.0173 14.5468 23.9007C14.4317 23.784 14.3547 23.6352 14.326 23.4739C14.2934 23.2042 14.286 22.9317 14.3019 22.6605ZM17.364 31.6475C17.339 31.8078 17.2656 31.9567 17.1535 32.0739C17.0414 32.1912 16.896 32.2713 16.737 32.3035C16.4703 32.3427 16.2007 32.3588 15.9312 32.3518C15.6569 32.3483 15.3834 32.3219 15.1136 32.2728C14.9471 32.2329 14.7943 32.1495 14.6707 32.0311C14.547 31.9127 14.457 31.7637 14.4098 31.5992C14.3506 31.3322 14.3147 31.0606 14.3024 30.7874C14.2867 30.5174 14.2952 30.2464 14.3276 29.9779C14.3564 29.8165 14.4333 29.6677 14.5485 29.5511C14.6636 29.4344 14.8113 29.3555 14.9723 29.3246C15.2442 29.2843 15.5189 29.2663 15.7937 29.2709C16.07 29.2719 16.3457 29.295 16.6183 29.3402C16.7842 29.3767 16.9365 29.4589 17.058 29.5776C17.1794 29.6963 17.2651 29.8467 17.3054 30.0117C17.3569 30.282 17.3869 30.5559 17.3951 30.831C17.4065 31.1037 17.3961 31.3764 17.364 31.6475ZM17.4354 28.2733C17.1586 28.2738 16.8823 28.2515 16.6092 28.2067C16.4446 28.1713 16.2934 28.0898 16.1734 27.9718C16.0533 27.8538 15.9693 27.704 15.9312 27.54C15.8853 27.2706 15.863 26.9978 15.8646 26.7245C15.8627 26.4513 15.885 26.1784 15.9312 25.909C15.9695 25.7448 16.0538 25.5948 16.1743 25.4767C16.2947 25.3587 16.4463 25.2774 16.6113 25.2424C16.8837 25.1976 17.1593 25.1753 17.4354 25.1757C17.7118 25.1726 17.988 25.1925 18.2611 25.2354C18.4251 25.2695 18.5756 25.3507 18.694 25.4692C18.8124 25.5876 18.8937 25.7381 18.9278 25.9021C19.0094 26.447 19.0094 27.001 18.9278 27.5459C18.8937 27.7099 18.8124 27.8604 18.694 27.9788C18.5756 28.0973 18.4251 28.1785 18.2611 28.2126C17.988 28.2558 17.7118 28.2761 17.4354 28.2733ZM21.6305 31.6883C21.5768 32.0107 21.2974 32.3013 20.9826 32.3556C20.715 32.3968 20.4443 32.4148 20.1736 32.4093C19.9013 32.4083 19.6296 32.3844 19.3613 32.3378C19.1958 32.2993 19.0442 32.2157 18.9233 32.0964C18.8024 31.977 18.717 31.8265 18.6764 31.6615C18.6232 31.3905 18.5932 31.1156 18.5866 30.8396C18.5766 30.5653 18.5905 30.2906 18.628 30.0187C18.6589 29.8553 18.7378 29.7048 18.8546 29.5864C18.9715 29.468 19.1209 29.3872 19.2839 29.3542C19.8297 29.2723 20.3849 29.2747 20.93 29.3612C21.0954 29.3972 21.247 29.4798 21.367 29.5993C21.487 29.7187 21.5702 29.8701 21.6068 30.0354C21.6537 30.3088 21.6779 30.5857 21.6794 30.8632C21.6853 31.1391 21.6683 31.415 21.6305 31.6883ZM21.761 28.2851C21.4845 28.2867 21.2083 28.2652 20.9353 28.2207C20.77 28.1852 20.6183 28.103 20.4983 27.9837C20.3784 27.8645 20.2953 27.7132 20.259 27.5481C20.1723 27.0025 20.1723 26.4466 20.259 25.901C20.2953 25.7358 20.3784 25.5846 20.4983 25.4653C20.6183 25.3461 20.77 25.2638 20.9353 25.2284C21.2083 25.1839 21.4845 25.1623 21.761 25.1639C22.0372 25.1613 22.313 25.1821 22.5856 25.2262C22.7506 25.2611 22.9019 25.3432 23.021 25.4625C23.1402 25.5819 23.222 25.7333 23.2566 25.8983C23.3411 26.4459 23.3411 27.0032 23.2566 27.5508C23.222 27.7158 23.1402 27.8672 23.021 27.9865C22.9019 28.1058 22.7506 28.1879 22.5856 28.2228C22.3134 28.2669 22.0368 28.2877 21.761 28.2851ZM30.2543 30.8422C30.2478 31.1183 30.2177 31.3932 30.1646 31.6642C30.124 31.8292 30.0385 31.9797 29.9176 32.099C29.7967 32.2184 29.6451 32.302 29.4797 32.3405C29.2114 32.3871 28.9397 32.411 28.6674 32.412C27.2517 32.4256 25.8361 32.4324 24.4207 32.4324C24.1492 32.434 23.878 32.4124 23.6101 32.3679C23.2931 32.3104 23.0025 32.0166 22.9434 31.6937C22.8545 31.1468 22.8503 30.5894 22.9311 30.0413C22.9651 29.8768 23.0465 29.7259 23.1651 29.607C23.2837 29.4881 23.4344 29.4064 23.5988 29.3719C23.8709 29.3278 24.1462 29.3066 24.4218 29.3085C25.8594 29.3085 27.2973 29.3055 28.7356 29.2994C29.011 29.2963 29.2861 29.3163 29.5581 29.359C29.7211 29.392 29.8706 29.4729 29.9874 29.5912C30.1043 29.7096 30.1832 29.8601 30.214 30.0235C30.2514 30.2947 30.2642 30.5687 30.2543 30.8422ZM34.5413 30.7885C34.529 31.0617 34.493 31.3333 34.4338 31.6002C34.3868 31.7648 34.2967 31.9139 34.1729 32.0321C34.0492 32.1503 33.8961 32.2334 33.7295 32.2728C33.4607 32.3215 33.1883 32.3478 32.9151 32.3513C32.6456 32.3583 32.376 32.3421 32.1093 32.3029C31.95 32.2712 31.8042 32.1914 31.6917 32.0742C31.5792 31.9569 31.5054 31.808 31.4802 31.6475C31.4482 31.3761 31.4379 31.1025 31.4496 30.8293C31.4578 30.5543 31.4878 30.2804 31.5393 30.0101C31.5796 29.8451 31.6653 29.6947 31.7868 29.576C31.9082 29.4573 32.0605 29.3751 32.2264 29.3386C32.499 29.2934 32.7747 29.2703 33.051 29.2693C33.3258 29.2647 33.6006 29.2827 33.8724 29.323C34.0333 29.3539 34.1811 29.4329 34.2962 29.5495C34.4113 29.6662 34.4883 29.815 34.5171 29.9763C34.5497 30.2455 34.557 30.5177 34.5413 30.7885ZM34.5794 27.5368C34.5792 27.5364 34.5787 27.5365 34.5786 27.5369C34.518 27.8528 34.2207 28.1412 33.8977 28.1992C33.6244 28.244 33.3479 28.2663 33.0709 28.2658C32.1845 28.2708 31.2979 28.2747 30.4112 28.2776C30.1351 28.2801 29.8593 28.2598 29.5866 28.2169C29.4223 28.1826 29.2716 28.1011 29.153 27.9823C29.0344 27.8636 28.953 27.7129 28.9188 27.5486C28.8372 27.0026 28.8372 26.4475 28.9188 25.9015C28.9535 25.7375 29.0352 25.5871 29.154 25.4688C29.2728 25.3505 29.4235 25.2694 29.5876 25.2354C29.8604 25.1925 30.1362 25.1722 30.4123 25.1747C31.299 25.1779 32.1856 25.1818 33.072 25.1865C33.3489 25.186 33.6255 25.2083 33.8988 25.2531C34.2211 25.3111 34.5198 25.6001 34.5799 25.9166C34.6701 26.4528 34.6702 27.0004 34.5801 27.5367C34.5801 27.537 34.5796 27.5371 34.5794 27.5368Z" fill="#EE0033"/>
</svg>
