<svg width="29" height="28" viewBox="0 0 29 28" fill="none" xmlns="http://www.w3.org/2000/svg">
  <path
    d="M22.7 15.9032V11.6C22.7 7.7396 20.078 4.4876 16.526 3.5096C16.1744 2.624 15.3152 2 14.3 2C13.2848 2 12.4256 2.624 12.074 3.5096C8.522 4.4888 5.9 7.7396 5.9 11.6V15.9032L3.8516 17.9516C3.73995 18.0628 3.6514 18.1951 3.59106 18.3407C3.53072 18.4863 3.49977 18.6424 3.5 18.8V21.2C3.5 21.5183 3.62643 21.8235 3.85147 22.0485C4.07652 22.2736 4.38174 22.4 4.7 22.4H23.9C24.2183 22.4 24.5235 22.2736 24.7485 22.0485C24.9736 21.8235 25.1 21.5183 25.1 21.2V18.8C25.1002 18.6424 25.0693 18.4863 25.0089 18.3407C24.9486 18.1951 24.8601 18.0628 24.7484 17.9516L22.7 15.9032ZM22.7 20H5.9V19.2968L7.9484 17.2484C8.06005 17.1372 8.1486 17.0049 8.20894 16.8593C8.26928 16.7137 8.30023 16.5576 8.3 16.4V11.6C8.3 8.2916 10.9916 5.6 14.3 5.6C17.6084 5.6 20.3 8.2916 20.3 11.6V16.4C20.3 16.7192 20.426 17.024 20.6516 17.2484L22.7 19.2968V20ZM14.3 26C15.0432 26.0009 15.7681 25.7703 16.3742 25.3402C16.9802 24.9101 17.4372 24.3018 17.6816 23.6H10.9184C11.1628 24.3018 11.6198 24.9101 12.2258 25.3402C12.8319 25.7703 13.5568 26.0009 14.3 26Z"
    fill="currentColor" />
</svg>