<svg width="44" height="43" viewBox="0 0 44 43" fill="none" xmlns="http://www.w3.org/2000/svg">
<path d="M33.0016 28.5016H30.3391C29.9078 27.0625 28.5813 26.0031 27.0016 26.0031C25.4219 26.0031 24.1 27.0625 23.6641 28.5016H10.9984C10.45 28.5016 10 28.9469 10 29.5C10 30.0531 10.45 30.4984 10.9984 30.4984H23.6594C24.0906 31.9375 25.4172 32.9969 26.9969 32.9969C28.5766 32.9969 29.8984 31.9375 30.3344 30.4984H32.9969C33.55 30.4984 33.9953 30.0484 33.9953 29.5C33.9953 28.9516 33.5547 28.5016 33.0016 28.5016ZM27.0016 31C26.1766 31 25.5016 30.325 25.5016 29.5C25.5016 28.675 26.1766 28 27.0016 28C27.8266 28 28.5016 28.675 28.5016 29.5C28.5016 30.325 27.8266 31 27.0016 31Z" fill="white"/>
<path d="M10.9984 14.5H23.6594C24.0953 15.9391 25.4172 16.9984 26.9969 16.9984C28.5766 16.9984 29.8984 15.9391 30.3344 14.5H32.9969C33.55 14.5 33.9953 14.05 33.9953 13.5016C33.9953 12.9531 33.55 12.5031 32.9969 12.5031H30.3344C29.9031 11.0594 28.5813 10 27.0016 10C25.4219 10 24.1 11.0594 23.6641 12.4984H10.9984C10.45 12.4984 10 12.9484 10 13.5016C10 14.0547 10.45 14.5 10.9984 14.5ZM27.0016 12.0016C27.8266 12.0016 28.5016 12.6766 28.5016 13.5016C28.5016 14.3266 27.8266 15.0016 27.0016 15.0016C26.1766 15.0016 25.5016 14.3266 25.5016 13.5016C25.5016 12.6766 26.1719 12.0016 27.0016 12.0016Z" fill="white"/>
<path d="M33.0016 20.5H20.3359C19.9 19.0609 18.5781 18.0016 16.9984 18.0016C15.4188 18.0016 14.0969 19.0609 13.6609 20.5H10.9984C10.45 20.5 10 20.95 10 21.4984C10 22.0469 10.45 22.4969 10.9984 22.4969H13.6609C14.0969 23.9359 15.4188 24.9953 16.9984 24.9953C18.5781 24.9953 19.9 23.9359 20.3359 22.4969H32.9969C33.55 22.4969 33.9953 22.0469 33.9953 21.4984C33.9953 20.95 33.5547 20.5 33.0016 20.5ZM16.9984 22.9984C16.1734 22.9984 15.4984 22.3234 15.4984 21.4984C15.4984 20.6734 16.1734 19.9984 16.9984 19.9984C17.8234 19.9984 18.4984 20.6734 18.4984 21.4984C18.4984 22.3234 17.8281 22.9984 16.9984 22.9984Z" fill="white"/>
</svg>
