<svg width="24" height="24" viewBox="0 0 24 24" fill="none" xmlns="http://www.w3.org/2000/svg">
<path d="M17.3125 22H12.5885C10.5521 22 8.76562 20.7187 8.13542 18.8073C8 18.3958 8.22396 17.9583 8.63542 17.8229C9.04688 17.6875 9.48438 17.9115 9.61979 18.3229C10.0365 19.5885 11.2292 20.4427 12.5885 20.4427H17.3125C19.0365 20.4427 20.4375 19.0417 20.4375 17.3177V6.68749C20.4375 4.96353 19.0365 3.56249 17.3125 3.56249H12.5885C11.1927 3.56249 9.95833 4.51562 9.59375 5.87499C9.48438 6.29166 9.05208 6.53645 8.63542 6.42707C8.21875 6.3177 7.97396 5.88541 8.08333 5.46874C8.59896 3.46874 10.5104 1.96874 12.5885 1.99999H17.3125C19.8958 1.99999 22 4.10416 22 6.68749V17.3125C22 19.8958 19.8958 22 17.3125 22ZM9.99479 14.4219H13.3906C14.6667 14.4427 16.6875 13.5573 16.6875 12.0781C16.6875 11.6302 16.5104 11.2031 16.1927 10.8906C15.4531 10.1562 14.4323 9.73437 13.3906 9.73437H9.99479C9.38542 8.32812 7.98437 7.39062 6.41146 7.39062H5.90625C3.75 7.39062 2 9.14062 2 11.2969V12.8594C2 15.0156 3.75 16.7656 5.90625 16.7656H6.41667C7.98958 16.7656 9.38542 15.8281 9.99479 14.4219ZM6.41667 8.95312C7.48438 8.95312 8.42187 9.67707 8.6875 10.7083C8.77604 11.0521 9.08854 11.2969 9.44271 11.2969H13.3958C14.026 11.2969 14.6458 11.5521 15.099 12C15.1458 12.0521 15.1458 12.1094 15.099 12.1562C14.651 12.6042 14.0312 12.8594 13.3958 12.8594H9.44271C9.08854 12.8594 8.77604 13.099 8.6875 13.4479C8.42187 14.4844 7.48958 15.2031 6.41667 15.2031H5.90625C4.61458 15.2031 3.5625 14.151 3.5625 12.8594V11.2969C3.5625 10.0052 4.61458 8.95312 5.90625 8.95312H6.41667ZM4.73438 12.0781C4.73438 12.6198 5.17188 13.0573 5.71354 13.0573C7.00521 13.0104 7.00521 11.151 5.71354 11.1042C5.17188 11.1042 4.73438 11.5364 4.73438 12.0781Z" fill="#73777A"/>
</svg>
