<svg width="64" height="64" viewBox="0 0 64 64" fill="none" xmlns="http://www.w3.org/2000/svg">
<path d="M30.2685 12.7989C31.0021 11.3124 33.1218 11.3124 33.8554 12.7989L38.956 23.1337C39.2429 23.7149 39.7936 24.1211 40.4336 24.2235L52.008 26.075C53.6143 26.3319 54.2583 28.2971 53.1155 29.4548L44.8779 37.8002C44.4326 38.2513 44.2276 38.8869 44.3252 39.5132L46.146 51.1959C46.4003 52.8274 44.6797 54.0468 43.2245 53.2663L33.0072 47.7863C32.4168 47.4697 31.707 47.4697 31.1166 47.7863L20.8993 53.2663C19.4442 54.0468 17.7236 52.8274 17.9779 51.1959L19.7952 39.5358C19.8948 38.8968 19.6792 38.2491 19.2166 37.7972L10.7033 29.4804C9.52504 28.3294 10.1654 26.3273 11.7929 26.0736L23.6846 24.2202C24.3278 24.1199 24.882 23.7129 25.1701 23.1292L30.2685 12.7989Z" fill="#C1B6BA"/>
</svg>
