<svg width="48" height="48" viewBox="0 0 48 48" fill="none" xmlns="http://www.w3.org/2000/svg">
<rect x="0.5" y="0.5" width="47" height="47" rx="9.5" fill="#EE0033" stroke="#EE0033"/>
<path d="M32.4009 15.0796C32.3518 15.0165 32.3098 14.9394 32.2607 14.8762C32.2339 14.836 32.2118 14.7917 32.1824 14.7534C32.173 14.7411 32.1638 14.7285 32.1556 14.7149C30.8803 13.0458 28.7782 11.9658 26.3888 12.0008L16.5508 12.113C14.1544 12.1411 12.0242 13.2702 10.6999 14.9885C10.6763 15.012 10.6594 15.0356 10.6441 15.0604C10.6197 15.1 10.5925 15.1391 10.5667 15.1778C10.5107 15.262 10.4616 15.3391 10.4056 15.4233C9.75392 16.4262 9.35451 17.6044 9.34751 18.8457L9.3405 32.3882C9.33942 32.9464 10.7638 33.3252 11.1645 32.9367C12.2422 31.8919 13.6694 31.1628 15.2615 30.9224C15.5978 30.8804 16.0953 30.7962 18.0643 30.7401C18.1554 30.7401 18.2675 30.7331 18.3656 30.7261L24.4058 30.712L26.1645 30.684C26.9563 30.67 27.7201 30.5437 28.4418 30.3123C29.4649 29.9827 30.3758 29.4497 31.1396 28.7554C31.1746 28.7203 31.2237 28.6782 31.2587 28.6432C31.6511 28.2785 31.9944 27.8717 32.2958 27.4229C32.9614 26.427 33.3538 25.2207 33.3678 23.9583L33.3748 23.7479L33.3819 23.4955L33.4309 19.007L33.4379 18.5512C33.4519 17.2818 33.0805 16.0895 32.4009 15.0796Z" fill="white"/>
<path d="M38.8194 14.736V25.382C38.8194 26.0202 38.0486 26.3358 37.6072 25.8799L34.7763 22.9975C34.5591 22.7731 34.4329 22.4715 34.4329 22.1559V17.962C34.4329 17.7306 34.503 17.5062 34.6221 17.3168C34.6642 17.2467 34.7202 17.1836 34.7763 17.1205L37.6072 14.238C38.0486 13.7892 38.8194 14.1048 38.8194 14.736Z" fill="white"/>
<path fill-rule="evenodd" clip-rule="evenodd" d="M15.1705 17.6528C15.1705 17.6766 15.1728 17.7003 15.1775 17.7237C15.2194 17.8915 15.2795 18.0542 15.3568 18.2089L15.3947 18.2847C15.404 18.2987 15.4147 18.3117 15.4266 18.3236L15.6641 18.5614C15.676 18.5733 15.689 18.584 15.703 18.5933L15.8615 18.6726C15.9425 18.7131 16.0276 18.7446 16.1154 18.7666L16.148 18.7748C16.2248 18.794 16.3036 18.8037 16.3827 18.8037C16.4618 18.8037 16.5406 18.794 16.6174 18.7748L16.65 18.7666C16.7378 18.7446 16.8229 18.7131 16.9039 18.6726L17.0624 18.5933C17.0764 18.584 17.0894 18.5733 17.1013 18.5614L17.3388 18.3236C17.3507 18.3117 17.3614 18.2987 17.3707 18.2847L17.4086 18.2089C17.4859 18.0542 17.546 17.8915 17.5879 17.7237C17.5926 17.7003 17.5949 17.6766 17.5949 17.6528V17.5834C17.5949 17.5694 17.5949 17.5624 17.5949 17.5483V17.4438C17.5949 17.42 17.5926 17.3963 17.5879 17.373C17.546 17.2052 17.4859 17.0425 17.4086 16.8877L17.3707 16.8119C17.3614 16.798 17.3507 16.7849 17.3388 16.773L17.1013 16.5353C17.0894 16.5234 17.0764 16.5127 17.0624 16.5034L16.9039 16.424C16.8229 16.3835 16.7378 16.352 16.65 16.33L16.6174 16.3219C16.5406 16.3027 16.4618 16.293 16.3827 16.293C16.3036 16.293 16.2248 16.3027 16.148 16.3219L16.1154 16.33C16.0276 16.352 15.9425 16.3835 15.8615 16.424L15.703 16.5034C15.689 16.5127 15.676 16.5234 15.6641 16.5353L15.4266 16.773C15.4147 16.7849 15.404 16.798 15.3947 16.8119L15.3568 16.8877C15.2795 17.0425 15.2194 17.2052 15.1775 17.373C15.1728 17.3963 15.1705 17.42 15.1705 17.4438V17.6528Z" fill="#EE0033"/>
<path fill-rule="evenodd" clip-rule="evenodd" d="M25.7513 17.6009C25.7379 17.612 25.7302 17.6285 25.7302 17.6458V17.7018C25.7302 17.7163 25.732 17.7308 25.7355 17.7449L25.7636 17.8571C25.7833 17.9362 25.8117 18.0129 25.8481 18.0859L25.9475 18.2847C25.9568 18.2987 25.9674 18.3117 25.9793 18.3236L26.2169 18.5614C26.2288 18.5733 26.2418 18.584 26.2558 18.5933L26.4143 18.6726C26.4952 18.7131 26.5803 18.7446 26.6682 18.7666L26.7008 18.7748C26.7775 18.794 26.8563 18.8037 26.9355 18.8037C27.0146 18.8037 27.0934 18.794 27.1701 18.7748L27.2028 18.7666C27.2906 18.7446 27.3757 18.7131 27.4566 18.6726L27.6151 18.5933C27.6291 18.584 27.6421 18.5733 27.654 18.5614L27.8916 18.3236C27.9035 18.3117 27.9141 18.2987 27.9234 18.2847L27.9613 18.2089C28.0386 18.0542 28.0988 17.8915 28.1407 17.7237C28.1453 17.7003 28.1477 17.6766 28.1477 17.6528V17.4438C28.1477 17.42 28.1453 17.3963 28.1407 17.373C28.0988 17.2052 28.0386 17.0425 27.9613 16.8877L27.9234 16.8119C27.9141 16.798 27.9035 16.7849 27.8916 16.773L27.654 16.5353C27.6421 16.5234 27.6291 16.5127 27.6151 16.5034L27.3408 16.3661C27.3384 16.3649 27.3384 16.3613 27.3408 16.3601C27.3436 16.3587 27.3431 16.3547 27.3401 16.3539L27.1076 16.2957C27.1003 16.2939 27.0928 16.293 27.0853 16.293H26.9775C26.8984 16.293 26.8196 16.3027 26.7428 16.3219L26.7102 16.33C26.6224 16.352 26.5373 16.3835 26.4563 16.424L26.2978 16.5034C26.2838 16.5127 26.2708 16.5234 26.2589 16.5353L26.0214 16.773C26.0095 16.7849 25.9988 16.798 25.9895 16.8119L25.8902 17.0108C25.8537 17.0837 25.8254 17.1604 25.8056 17.2395C25.7835 17.3282 25.7723 17.4192 25.7723 17.5106V17.5483C25.7723 17.5511 25.7723 17.5537 25.7723 17.556C25.7723 17.5734 25.7646 17.5898 25.7513 17.6009Z" fill="#EE0033"/>
<path fill-rule="evenodd" clip-rule="evenodd" d="M28.8483 23.2431V21.0199C28.8483 20.8516 28.8203 20.6903 28.7713 20.536C28.6591 20.1923 28.4209 19.8907 28.1126 19.6593C27.7973 19.4279 27.4049 19.2666 26.9634 19.2105C26.9424 19.2105 26.9214 19.2035 26.9004 19.2035C26.8934 19.2035 26.8934 19.2035 26.8864 19.2035C26.8793 19.2035 26.8653 19.2035 26.8583 19.2035H26.8513C26.8443 19.2035 26.8303 19.2035 26.8233 19.2035H26.8163C26.8093 19.2035 26.8093 19.2035 26.8023 19.2035C26.7953 19.2035 26.7883 19.2035 26.7742 19.2035C26.7672 19.2035 26.7602 19.2035 26.7462 19.2035C26.7392 19.2035 26.7322 19.2035 26.7182 19.2035C26.7112 19.2035 26.7042 19.2035 26.6901 19.2035C26.6831 19.2035 26.6691 19.2035 26.6621 19.2035C26.6551 19.2035 26.6411 19.2035 26.6341 19.2035H26.578C26.571 19.2035 26.557 19.2035 26.55 19.2035C26.543 19.2035 26.536 19.2035 26.522 19.2035C26.515 19.2035 26.508 19.2035 26.494 19.2035C26.4869 19.2035 26.4799 19.2035 26.4659 19.2035C26.4589 19.2035 26.4519 19.2035 26.4379 19.2035C26.4309 19.2035 26.4239 19.2035 26.4099 19.2035C26.4029 19.2035 26.4029 19.2035 26.3959 19.2035C26.3818 19.2035 26.3748 19.2035 26.3608 19.2035C26.3323 19.2035 26.3045 19.2131 26.2761 19.2157C26.2504 19.2181 26.2247 19.2196 26.199 19.2235C26.1948 19.2241 26.1888 19.2244 26.1845 19.2246C26.1692 19.225 26.1566 19.2331 26.1417 19.2363C26.1243 19.24 26.108 19.2438 26.0907 19.2475C26.0747 19.251 26.0582 19.253 26.0422 19.2569C26.0363 19.2583 26.0304 19.2596 26.0245 19.2596C26.0175 19.2596 26.0035 19.2666 25.9964 19.2666C25.9894 19.2666 25.9754 19.2736 25.9684 19.2736C25.9446 19.2736 25.9222 19.2855 25.899 19.2909C25.8894 19.2932 25.8799 19.2946 25.8703 19.2946C25.8512 19.2946 25.833 19.3053 25.8146 19.3104C25.8098 19.3117 25.805 19.3133 25.8003 19.3157C25.7862 19.3227 25.7652 19.3297 25.7512 19.3297C25.7442 19.3297 25.7372 19.3367 25.7302 19.3367C25.7154 19.3367 25.7021 19.3465 25.6884 19.352C25.663 19.3622 25.6377 19.3723 25.6124 19.3825C25.6069 19.3847 25.6017 19.3839 25.5966 19.3869C25.5923 19.3894 25.5878 19.394 25.5833 19.3962C25.5809 19.3974 25.5785 19.3985 25.5762 19.3996C25.5628 19.4059 25.5481 19.4103 25.5349 19.4169C25.5276 19.4206 25.5203 19.4242 25.513 19.4279C25.512 19.4284 25.511 19.4288 25.5101 19.4293C25.4877 19.4405 25.4653 19.4517 25.4429 19.4629C25.4186 19.4751 25.3954 19.4901 25.3718 19.5036C25.3587 19.5111 25.3457 19.5186 25.3308 19.5261C25.3168 19.5331 25.3098 19.5401 25.2957 19.5471C25.2327 19.5822 25.1766 19.6242 25.1206 19.6663C25.0995 19.6804 25.0855 19.6944 25.0645 19.7084C25.0505 19.7154 25.0365 19.7294 25.0295 19.7365C25.0155 19.7505 25.0014 19.7575 24.9874 19.7715C24.9866 19.7724 24.9857 19.7733 24.9848 19.7741C24.9747 19.7841 24.9614 19.7891 24.9507 19.7984C24.942 19.806 24.9325 19.8162 24.9242 19.8243C24.9212 19.8272 24.9183 19.8302 24.9153 19.8331C24.9081 19.8397 24.8998 19.8452 24.8929 19.8521C24.8894 19.8556 24.8859 19.8592 24.8823 19.8627C24.8683 19.8767 24.8613 19.8837 24.8473 19.8978C24.8215 19.9236 24.8004 19.954 24.7771 19.9821C24.7538 20.0101 24.7305 20.0381 24.7071 20.0661C24.7009 20.0724 24.6946 20.0787 24.6883 20.09C24.6868 20.0927 24.6837 20.0964 24.6817 20.0987C24.6768 20.1044 24.6758 20.1109 24.671 20.1168C24.67 20.118 24.669 20.1192 24.6682 20.1205C24.6648 20.1256 24.6637 20.1321 24.6608 20.1376C24.6593 20.1404 24.6578 20.1432 24.6561 20.1459C24.6468 20.1605 24.6329 20.1727 24.6251 20.1882C24.6221 20.1943 24.6191 20.2003 24.6161 20.2063C24.5893 20.2465 24.5697 20.2908 24.5465 20.3331C24.5413 20.3427 24.5363 20.352 24.532 20.3606L23.1025 23.222L22.3737 24.667C22.3691 24.6761 22.3673 24.6855 22.3608 24.6933C22.3564 24.6986 22.3512 24.705 22.3483 24.7113C22.3431 24.723 22.3371 24.7369 22.3278 24.7476C22.3259 24.7498 22.3247 24.7525 22.3247 24.7554C22.3247 24.757 22.3244 24.7587 22.3236 24.7602C22.3194 24.7677 22.3135 24.7752 22.3079 24.7827C22.2998 24.7937 22.2918 24.8049 22.2821 24.8146C22.28 24.8167 22.2778 24.8189 22.2757 24.821C22.2617 24.8351 22.2477 24.8491 22.2336 24.8631C22.2266 24.8701 22.2196 24.8771 22.2126 24.8841C22.2056 24.8912 22.1986 24.8982 22.1916 24.9052C22.1846 24.9122 22.1776 24.9192 22.1706 24.9262C22.1636 24.9332 22.1566 24.9403 22.1496 24.9473C22.1486 24.9482 22.1476 24.9492 22.1466 24.9502C22.1332 24.9631 22.1129 24.9658 22.097 24.9753C22.0897 24.9797 22.0824 24.9841 22.0761 24.9875C22.0737 24.9887 22.0729 24.989 22.0704 24.9897C22.066 24.9909 22.0638 24.9983 22.0599 25.0007C22.0569 25.0026 22.0538 25.0038 22.0508 25.0056C22.0464 25.0081 22.0391 25.011 22.0348 25.0139C22.0305 25.0167 22.0274 25.0174 22.0228 25.0195C22.0209 25.0204 22.019 25.0214 22.0172 25.0222C22.0123 25.0245 22.0069 25.0257 22.0021 25.028C21.9955 25.0313 21.9886 25.0346 21.9808 25.0378C21.9674 25.0434 21.9543 25.0517 21.9399 25.0524C21.9397 25.0525 21.9395 25.0525 21.9393 25.0525C21.9323 25.0525 21.9323 25.0525 21.9253 25.0525C21.9221 25.0525 21.9189 25.054 21.9163 25.0556C21.9143 25.0568 21.9084 25.0595 21.906 25.0595C21.9056 25.0595 21.9041 25.0596 21.9038 25.0598C21.8937 25.0646 21.8803 25.066 21.8685 25.0689C21.8595 25.0711 21.8505 25.0735 21.8412 25.0735C21.8266 25.0735 21.8119 25.0806 21.7978 25.0847C21.7926 25.0862 21.7882 25.0875 21.7852 25.0875C21.7792 25.0875 21.7745 25.0875 21.77 25.0881C21.7563 25.0897 21.743 25.0945 21.7291 25.0945C21.7221 25.0945 21.7151 25.0945 21.7081 25.0945C21.7011 25.0945 21.6941 25.0945 21.6871 25.0945C21.6801 25.0945 21.6731 25.0945 21.6661 25.0945C21.6591 25.0945 21.652 25.0945 21.645 25.0945C21.638 25.0945 21.631 25.0945 21.624 25.0945C21.617 25.0945 21.61 25.0945 21.603 25.0945C21.596 25.0945 21.589 25.0945 21.582 25.0945C21.575 25.0945 21.568 25.0945 21.561 25.0945C21.554 25.0945 21.5469 25.0945 21.5399 25.0945C21.5164 25.0945 21.4934 25.0805 21.4699 25.0805C21.4653 25.0805 21.4607 25.0805 21.4561 25.0786C21.4509 25.0763 21.4456 25.0735 21.4399 25.0735C21.4392 25.0735 21.4385 25.0735 21.4375 25.0735C21.4358 25.0735 21.434 25.0731 21.4324 25.0724C21.4206 25.0674 21.4048 25.0663 21.3923 25.0621C21.3906 25.0616 21.3805 25.0595 21.3788 25.0595C21.3775 25.0595 21.3762 25.0595 21.3749 25.0594C21.3672 25.0592 21.3585 25.0525 21.3507 25.0525C21.336 25.0525 21.323 25.0418 21.3096 25.0357C21.3069 25.0345 21.304 25.0333 21.3011 25.032C21.2878 25.0265 21.2746 25.0182 21.2603 25.0174C21.2601 25.0174 21.2599 25.0174 21.2597 25.0174C21.2586 25.0174 21.2576 25.0172 21.2566 25.017C21.2486 25.0149 21.2405 25.0103 21.2341 25.0052C21.232 25.0035 21.2299 25.0016 21.2278 24.9995C21.2257 24.9975 21.2248 24.9968 21.2221 24.9959C21.2183 24.9946 21.2153 24.9882 21.2117 24.9862C21.2009 24.9803 21.1877 24.9719 21.1766 24.9656C21.1713 24.9626 21.1671 24.9594 21.1625 24.9555C21.1512 24.9458 21.1346 24.9413 21.1241 24.9308C21.1226 24.9293 21.121 24.9278 21.1195 24.9262C21.1125 24.9192 21.1055 24.9122 21.0985 24.9052C21.0915 24.8982 21.0845 24.8912 21.0775 24.8841C21.0705 24.8771 21.0635 24.8701 21.0564 24.8631C21.0424 24.8491 21.0284 24.8351 21.0144 24.821C21.0123 24.8189 21.0101 24.8167 21.008 24.8146C20.9983 24.8049 20.9903 24.7937 20.9822 24.7827C20.9768 24.7755 20.9711 24.7682 20.967 24.761C20.9659 24.759 20.9654 24.7567 20.9654 24.7544C20.9654 24.7521 20.9648 24.7498 20.9638 24.7478C20.9583 24.7375 20.95 24.7244 20.9434 24.713C20.9392 24.7057 20.9341 24.6988 20.9303 24.6912C20.9266 24.6837 20.9214 24.677 20.9176 24.6695L20.1876 23.222L19.5569 21.9596L18.7249 20.308C18.7191 20.2964 18.7122 20.285 18.7078 20.2728C18.7051 20.2652 18.6997 20.2591 18.6957 20.2522C18.6856 20.2346 18.6788 20.2169 18.667 20.1993C18.663 20.1912 18.6589 20.1831 18.6535 20.1749C18.645 20.1623 18.6365 20.1497 18.6278 20.1373C18.6247 20.133 18.6213 20.1291 18.617 20.126C18.6133 20.1231 18.609 20.1206 18.6066 20.1166C18.6048 20.1136 18.6035 20.1106 18.6018 20.1076C18.5992 20.1031 18.5971 20.0978 18.5935 20.0941C18.5898 20.0905 18.5878 20.0851 18.5843 20.0813C18.5804 20.0771 18.5765 20.0724 18.5726 20.0658C18.57 20.0614 18.5673 20.0571 18.564 20.0531C18.5306 20.013 18.4972 19.9729 18.4638 19.9328C18.4625 19.9316 18.4613 19.9303 18.46 19.929C18.4368 19.9057 18.417 19.8789 18.3937 19.8557C18.3867 19.8487 18.3797 19.8417 18.3727 19.8346C18.3654 19.8273 18.36 19.8219 18.3545 19.8174C18.3442 19.809 18.3322 19.8026 18.3222 19.7939C18.3191 19.7913 18.3161 19.7882 18.3135 19.7847C18.3106 19.7809 18.3073 19.776 18.3038 19.7728C18.295 19.7647 18.284 19.7596 18.2746 19.7523C18.2691 19.748 18.2636 19.7441 18.2581 19.7397C18.2502 19.7333 18.2416 19.7274 18.2342 19.7204C18.2324 19.7188 18.2308 19.7171 18.2291 19.7154C18.2185 19.7049 18.2063 19.6958 18.1945 19.6866C18.1828 19.6775 18.1692 19.6684 18.1555 19.6593C18.0995 19.6172 18.0434 19.5752 17.9803 19.5401C17.9663 19.5331 17.9593 19.5261 17.9453 19.519C17.9173 19.505 17.8962 19.491 17.8682 19.477C17.8603 19.473 17.8524 19.469 17.8457 19.4651C17.8369 19.4598 17.8276 19.4528 17.8186 19.4478C17.8055 19.4406 17.791 19.4388 17.7781 19.4314C17.7776 19.4311 17.7771 19.4309 17.7766 19.4306C17.7671 19.425 17.7581 19.4183 17.7482 19.4134C17.7391 19.4089 17.7301 19.4043 17.7211 19.3998C17.7071 19.3928 17.693 19.3858 17.686 19.3858C17.6752 19.3858 17.6668 19.3767 17.6567 19.3727C17.6337 19.3634 17.6107 19.3542 17.5877 19.345C17.574 19.3395 17.5607 19.3297 17.5459 19.3297C17.5312 19.3297 17.5182 19.3188 17.5042 19.3142C17.502 19.3135 17.4998 19.3129 17.4977 19.3123C17.4836 19.3083 17.469 19.3052 17.4548 19.3016C17.4532 19.3012 17.4516 19.3008 17.4499 19.3004C17.439 19.2975 17.4276 19.2937 17.4169 19.2902C17.4094 19.2877 17.402 19.2863 17.3945 19.2839C17.3772 19.2783 17.36 19.2736 17.3427 19.2736C17.3287 19.2736 17.3217 19.2666 17.3076 19.2666C17.3006 19.2666 17.2866 19.2596 17.2796 19.2596C17.2726 19.2596 17.2586 19.2525 17.2516 19.2525C17.2232 19.2525 17.1955 19.2428 17.1678 19.2366C17.1516 19.233 17.1358 19.2295 17.1183 19.2259C17.1138 19.2249 17.1101 19.2246 17.1055 19.2244C17.0908 19.2238 17.0756 19.2161 17.0611 19.2138C17.0265 19.2082 16.9919 19.2035 16.9573 19.2035C16.9546 19.2035 16.9519 19.2035 16.9493 19.2034C16.9262 19.203 16.9033 19.1964 16.8802 19.1964C16.8732 19.1964 16.8732 19.1964 16.8662 19.1964C16.8592 19.1964 16.8522 19.1964 16.8382 19.1964C16.8312 19.1964 16.8242 19.1964 16.8101 19.1964C16.8031 19.1964 16.7961 19.1964 16.7821 19.1964C16.7751 19.1964 16.7681 19.1964 16.7541 19.1964C16.7471 19.1964 16.7401 19.1964 16.7261 19.1964C16.7191 19.1964 16.712 19.1964 16.698 19.1964H16.642C16.635 19.1964 16.621 19.1964 16.614 19.1964C16.6069 19.1964 16.5929 19.1964 16.5859 19.1964C16.5789 19.1964 16.5719 19.1964 16.5579 19.1964C16.5509 19.1964 16.5439 19.1964 16.5299 19.1964C16.5229 19.1964 16.5158 19.1964 16.5018 19.1964C16.4948 19.1964 16.4878 19.1964 16.4738 19.1964C16.4668 19.1964 16.4668 19.1964 16.4598 19.1964H16.4528C16.4458 19.1964 16.4318 19.1964 16.4248 19.1964H16.4178C16.4107 19.1964 16.3967 19.1964 16.3897 19.1964C16.3827 19.1964 16.3827 19.1964 16.3757 19.1964C16.3547 19.1964 16.3337 19.2035 16.3126 19.2035C15.8782 19.2596 15.4788 19.4139 15.1635 19.6523C14.8482 19.8837 14.6169 20.1853 14.5048 20.529C14.4558 20.6832 14.4277 20.8445 14.4277 21.0129V25.7257C14.4347 25.873 14.5048 26.0203 14.645 26.1395C14.7921 26.2587 14.9813 26.3219 15.1705 26.3148C15.5768 26.3148 15.9062 25.9854 15.9062 25.5791V21.0058C15.9062 20.9817 15.9095 20.9543 15.9139 20.9282C15.9177 20.9051 15.9252 20.8829 15.9349 20.8618L15.9561 20.816C15.9602 20.8071 15.9617 20.798 15.9679 20.7904C15.9725 20.7847 15.978 20.7781 15.9809 20.7715C15.9861 20.7598 15.9921 20.7462 16.0013 20.7356C16.0032 20.7334 16.0043 20.7307 16.0043 20.7279C16.0043 20.7262 16.0047 20.7245 16.0055 20.7231C16.0096 20.7156 16.0156 20.708 16.0211 20.7005C16.0293 20.6896 16.0373 20.6783 16.0469 20.6686C16.0491 20.6665 16.0512 20.6643 16.0534 20.6622C16.0674 20.6482 16.0814 20.6341 16.0954 20.6201C16.1024 20.6131 16.1094 20.6061 16.1164 20.5991C16.1234 20.5921 16.1305 20.5851 16.1375 20.578C16.1445 20.571 16.1515 20.564 16.1585 20.557C16.1655 20.55 16.1725 20.543 16.1795 20.536C16.1805 20.535 16.1815 20.534 16.1825 20.5331C16.1958 20.5202 16.2161 20.5175 16.2321 20.5079C16.2394 20.5035 16.2467 20.4991 16.253 20.4957C16.2553 20.4945 16.2561 20.4943 16.2587 20.4935C16.2631 20.4923 16.2653 20.4849 16.2692 20.4825C16.2722 20.4807 16.2752 20.4794 16.2783 20.4777C16.2827 20.4751 16.29 20.4722 16.2943 20.4693C16.2985 20.4665 16.3016 20.4659 16.3063 20.4637C16.3082 20.4629 16.31 20.4619 16.3119 20.461C16.3167 20.4587 16.3221 20.4576 16.3269 20.4552C16.3336 20.4519 16.3404 20.4487 16.3483 20.4454C16.3616 20.4399 16.3747 20.4316 16.3891 20.4308C16.3893 20.4308 16.3895 20.4308 16.3897 20.4308H16.4037C16.407 20.4308 16.4102 20.4293 16.4127 20.4277C16.4147 20.4264 16.4207 20.4238 16.423 20.4238C16.4235 20.4238 16.4249 20.4237 16.4253 20.4235C16.4353 20.4187 16.4487 20.4172 16.4606 20.4143C16.4695 20.4121 16.4786 20.4097 16.4878 20.4097C16.5025 20.4097 16.5172 20.4027 16.5313 20.3985C16.5364 20.397 16.5408 20.3957 16.5439 20.3957C16.5498 20.3957 16.5545 20.3957 16.559 20.3952C16.5728 20.3935 16.5861 20.3887 16.5999 20.3887C16.6069 20.3887 16.614 20.3887 16.621 20.3887C16.628 20.3887 16.635 20.3887 16.642 20.3887C16.649 20.3887 16.656 20.3887 16.663 20.3887C16.67 20.3887 16.677 20.3887 16.684 20.3887C16.691 20.3887 16.698 20.3887 16.705 20.3887C16.712 20.3887 16.7191 20.3887 16.7261 20.3887C16.7331 20.3887 16.7401 20.3887 16.7471 20.3887C16.7541 20.3887 16.7611 20.3887 16.7681 20.3887C16.7751 20.3887 16.7821 20.3887 16.7891 20.3887C16.8127 20.3887 16.8356 20.4027 16.8592 20.4027C16.8638 20.4027 16.8684 20.4027 16.8729 20.4047C16.8782 20.4069 16.8834 20.4097 16.8891 20.4097C16.8898 20.4097 16.8906 20.4097 16.8915 20.4097C16.8933 20.4097 16.8951 20.4102 16.8967 20.4109C16.9085 20.4159 16.9242 20.4169 16.9368 20.4211C16.9385 20.4217 16.9485 20.4238 16.9503 20.4238C16.9516 20.4238 16.9529 20.4238 16.9542 20.4238C16.9619 20.4241 16.9706 20.4308 16.9783 20.4308C16.993 20.4308 17.0061 20.4414 17.0195 20.4475C17.0222 20.4487 17.025 20.45 17.028 20.4512C17.0413 20.4567 17.0544 20.465 17.0688 20.4658C17.069 20.4658 17.0692 20.4658 17.0694 20.4658C17.0704 20.4658 17.0715 20.466 17.0725 20.4662C17.0805 20.4683 17.0885 20.4729 17.095 20.4781C17.0971 20.4797 17.0992 20.4817 17.1013 20.4837C17.1033 20.4857 17.1042 20.4864 17.1069 20.4873C17.1108 20.4886 17.1138 20.495 17.1173 20.497C17.1281 20.5029 17.1414 20.5114 17.1525 20.5176C17.1577 20.5206 17.162 20.5238 17.1666 20.5277C17.1779 20.5374 17.1945 20.5419 17.205 20.5524C17.2065 20.554 17.208 20.5555 17.2096 20.557C17.2166 20.564 17.2236 20.571 17.2306 20.578C17.2376 20.5851 17.2446 20.5921 17.2516 20.5991C17.2586 20.6061 17.2656 20.6131 17.2726 20.6201C17.2866 20.6341 17.3006 20.6482 17.3147 20.6622C17.3168 20.6643 17.319 20.6665 17.3211 20.6686C17.3308 20.6783 17.3388 20.6896 17.3469 20.7005C17.3523 20.7078 17.358 20.715 17.3621 20.7222C17.3632 20.7242 17.3637 20.7265 17.3637 20.7288C17.3637 20.7311 17.3642 20.7334 17.3653 20.7354C17.3708 20.7457 17.379 20.7588 17.3856 20.7702C17.3899 20.7775 17.395 20.7844 17.3988 20.792C17.4025 20.7995 17.4077 20.8063 17.4114 20.8137L18.1415 22.2612L19.5709 25.1226C19.585 25.1506 19.599 25.1857 19.62 25.2138C19.634 25.2348 19.641 25.2558 19.655 25.2769C19.6591 25.285 19.6632 25.2932 19.6686 25.3013C19.677 25.3139 19.6855 25.3265 19.6943 25.3389C19.6973 25.3432 19.7008 25.3471 19.705 25.3503C19.7088 25.3531 19.713 25.3556 19.7155 25.3597C19.7173 25.3627 19.7185 25.3656 19.7202 25.3686C19.7228 25.3731 19.7249 25.3784 19.7286 25.3821C19.7323 25.3858 19.7342 25.3911 19.7378 25.3949C19.7417 25.3991 19.7455 25.4038 19.7494 25.4104C19.7521 25.4148 19.7548 25.4191 19.7581 25.4231C19.7915 25.4632 19.8248 25.5033 19.8582 25.5434C19.8595 25.5447 19.8608 25.5459 19.8621 25.5472C19.8852 25.5705 19.9051 25.5973 19.9283 25.6205C19.9353 25.6275 19.9423 25.6346 19.9493 25.6416C19.9567 25.6489 19.9621 25.6543 19.9676 25.6588C19.9778 25.6672 19.9898 25.6736 19.9999 25.6823C20.0029 25.685 20.006 25.688 20.0086 25.6915C20.0114 25.6954 20.0148 25.7002 20.0183 25.7034C20.0271 25.7115 20.038 25.7166 20.0474 25.7239C20.0529 25.7282 20.0584 25.7321 20.0639 25.7365C20.0719 25.7429 20.0804 25.7488 20.0879 25.7558C20.0896 25.7574 20.0913 25.7591 20.093 25.7608C20.1035 25.7714 20.1157 25.7804 20.1275 25.7896C20.1392 25.7987 20.1529 25.8078 20.1665 25.8169C20.2226 25.859 20.2787 25.9011 20.3417 25.9361C20.3557 25.9431 20.3627 25.9502 20.3768 25.9572C20.4048 25.9712 20.4258 25.9852 20.4538 25.9992C20.4618 26.0032 20.4697 26.0072 20.4763 26.0111C20.4852 26.0164 20.4944 26.0234 20.5035 26.0284C20.5165 26.0356 20.5311 26.0374 20.544 26.0448C20.5445 26.0451 20.545 26.0453 20.5454 26.0456C20.555 26.0512 20.564 26.0579 20.5739 26.0628C20.5829 26.0673 20.5919 26.0719 20.601 26.0764C20.615 26.0834 20.629 26.0904 20.636 26.0904C20.6469 26.0904 20.6552 26.0995 20.6653 26.1036C20.6884 26.1128 20.7114 26.122 20.7344 26.1312C20.7481 26.1367 20.7614 26.1465 20.7762 26.1465C20.7909 26.1465 20.8039 26.1574 20.8179 26.162C20.82 26.1627 20.8222 26.1633 20.8244 26.164C20.8384 26.1679 20.8531 26.171 20.8673 26.1746C20.8689 26.175 20.8705 26.1754 20.8721 26.1758C20.8831 26.1787 20.8945 26.1826 20.9052 26.1861C20.9126 26.1885 20.9201 26.1899 20.9275 26.1923C20.9448 26.1979 20.9621 26.2026 20.9794 26.2026C20.9934 26.2026 21.0004 26.2096 21.0144 26.2096C21.0214 26.2096 21.0354 26.2167 21.0424 26.2167C21.0494 26.2167 21.0635 26.2237 21.0705 26.2237C21.0989 26.2237 21.1266 26.2334 21.1543 26.2396C21.1704 26.2432 21.1863 26.2468 21.2038 26.2503C21.2083 26.2513 21.2119 26.2516 21.2166 26.2518C21.2313 26.2524 21.2464 26.2601 21.2609 26.2624C21.2956 26.268 21.3302 26.2728 21.3648 26.2728C21.3674 26.2728 21.3701 26.2728 21.3728 26.2728C21.3958 26.2732 21.4188 26.2798 21.4418 26.2798C21.4488 26.2798 21.4488 26.2798 21.4559 26.2798C21.4629 26.2798 21.4699 26.2798 21.4839 26.2798C21.4909 26.2798 21.4979 26.2798 21.5119 26.2798C21.5189 26.2798 21.5259 26.2798 21.5399 26.2798C21.5469 26.2798 21.554 26.2798 21.568 26.2798C21.575 26.2798 21.582 26.2798 21.596 26.2798C21.603 26.2798 21.61 26.2798 21.624 26.2798H21.6801C21.6871 26.2798 21.7011 26.2798 21.7081 26.2798C21.7151 26.2798 21.7291 26.2798 21.7361 26.2798C21.7431 26.2798 21.7502 26.2798 21.7642 26.2798C21.7712 26.2798 21.7782 26.2798 21.7922 26.2798C21.7992 26.2798 21.8062 26.2798 21.8202 26.2798C21.8272 26.2798 21.8342 26.2798 21.8482 26.2798C21.8553 26.2798 21.8553 26.2798 21.8623 26.2798C21.8763 26.2798 21.8833 26.2798 21.8973 26.2798C21.9258 26.2798 21.9536 26.2701 21.9821 26.2675C22.0078 26.2651 22.0335 26.2636 22.0591 26.2597C22.0634 26.2591 22.0693 26.2588 22.0736 26.2587C22.0889 26.2582 22.1015 26.2502 22.1164 26.2469C22.1338 26.2432 22.1501 26.2395 22.1674 26.2357C22.1835 26.2323 22.1999 26.2303 22.2159 26.2264C22.2218 26.2249 22.2277 26.2237 22.2336 26.2237C22.2406 26.2237 22.2547 26.2167 22.2617 26.2167C22.2687 26.2167 22.2827 26.2096 22.2897 26.2096C22.3135 26.2096 22.336 26.1977 22.3591 26.1923C22.3687 26.1901 22.3782 26.1886 22.3878 26.1886C22.4069 26.1886 22.4251 26.1779 22.4435 26.1728C22.4483 26.1715 22.4531 26.17 22.4579 26.1676C22.4719 26.1605 22.4929 26.1535 22.5069 26.1535C22.5139 26.1535 22.5209 26.1465 22.5279 26.1465C22.5349 26.1465 22.542 26.1395 22.549 26.1395H22.556C22.5669 26.1395 22.5749 26.1299 22.585 26.1258C22.6068 26.1171 22.631 26.1108 22.6522 26.1016C22.6581 26.099 22.6638 26.0996 22.6691 26.096C22.6727 26.0935 22.6771 26.0894 22.6811 26.0874C22.6838 26.0861 22.6864 26.0848 22.689 26.0836C22.7023 26.0773 22.717 26.0729 22.7302 26.0663C22.7375 26.0627 22.7449 26.059 22.7522 26.0554C22.7531 26.0549 22.7541 26.0544 22.7551 26.0539C22.7774 26.0427 22.7999 26.0315 22.8222 26.0203C22.8465 26.0081 22.8697 25.9931 22.8933 25.9796C22.9064 25.9722 22.9194 25.9647 22.9343 25.9572C22.9484 25.9502 22.9554 25.9431 22.9694 25.9361C23.0324 25.9011 23.0885 25.859 23.1446 25.8169C23.1656 25.8029 23.1796 25.7888 23.2006 25.7748C23.2273 25.7615 23.2479 25.7378 23.2706 25.7183C23.273 25.7163 23.2753 25.7141 23.2777 25.7117C23.2786 25.7108 23.2794 25.71 23.2803 25.7091C23.2904 25.6991 23.3038 25.6942 23.3144 25.6848C23.3231 25.6772 23.3326 25.667 23.3409 25.6589C23.3439 25.656 23.3468 25.653 23.3498 25.6502C23.357 25.6435 23.3653 25.638 23.3722 25.6311C23.3757 25.6276 23.3793 25.6241 23.3828 25.6205C23.3968 25.6065 23.4038 25.5995 23.4178 25.5855C23.4437 25.5596 23.4647 25.5292 23.4881 25.5011C23.5114 25.4731 23.5347 25.4451 23.558 25.4172C23.5643 25.4109 23.5706 25.4046 23.5768 25.3932C23.5783 25.3905 23.5814 25.3869 23.5834 25.3845C23.5884 25.3788 23.5893 25.3723 23.5941 25.3665C23.5952 25.3652 23.5961 25.364 23.5969 25.3628C23.6003 25.3576 23.6014 25.3511 23.6043 25.3457C23.6058 25.3428 23.6074 25.34 23.6091 25.3374C23.6184 25.3227 23.6323 25.3106 23.64 25.295C23.643 25.289 23.6461 25.2829 23.6491 25.2769C23.6758 25.2368 23.6955 25.1924 23.7186 25.1501C23.7239 25.1406 23.7288 25.1312 23.7332 25.1226L25.1626 22.2612L25.8914 20.8162C25.896 20.8072 25.8978 20.7977 25.9043 20.79C25.9088 20.7846 25.9139 20.7783 25.9168 20.7719C25.922 20.7602 25.928 20.7464 25.9374 20.7356C25.9392 20.7334 25.9404 20.7307 25.9404 20.7279C25.9404 20.7262 25.9408 20.7245 25.9416 20.7231C25.9457 20.7156 25.9516 20.708 25.9572 20.7005C25.9654 20.6896 25.9733 20.6783 25.983 20.6686C25.9852 20.6665 25.9873 20.6643 25.9894 20.6622C26.0035 20.6482 26.0175 20.6341 26.0315 20.6201C26.0385 20.6131 26.0455 20.6061 26.0525 20.5991C26.0595 20.5921 26.0665 20.5851 26.0735 20.578C26.0805 20.571 26.0875 20.564 26.0945 20.557C26.1016 20.55 26.1086 20.543 26.1156 20.536C26.1165 20.535 26.1175 20.534 26.1185 20.5331C26.1319 20.5202 26.1522 20.5175 26.1681 20.5079C26.1754 20.5035 26.1828 20.4991 26.1891 20.4957C26.1914 20.4945 26.1922 20.4943 26.1948 20.4935C26.1991 20.4923 26.2013 20.4849 26.2052 20.4825C26.2083 20.4807 26.2113 20.4794 26.2143 20.4777C26.2188 20.4751 26.226 20.4722 26.2303 20.4693C26.2346 20.4665 26.2377 20.4659 26.2423 20.4637C26.2442 20.4629 26.2461 20.4618 26.248 20.461C26.2528 20.4587 26.2582 20.4576 26.263 20.4552C26.2696 20.4519 26.2765 20.4487 26.2844 20.4454C26.2977 20.4399 26.3108 20.4316 26.3252 20.4308C26.3254 20.4308 26.3256 20.4308 26.3258 20.4308C26.3328 20.4308 26.3328 20.4308 26.3398 20.4308C26.343 20.4308 26.3463 20.4293 26.3488 20.4277C26.3508 20.4264 26.3568 20.4238 26.3591 20.4238C26.3595 20.4238 26.361 20.4237 26.3614 20.4235C26.3714 20.4187 26.3848 20.4172 26.3966 20.4143C26.4056 20.4121 26.4147 20.4097 26.4239 20.4097C26.4385 20.4097 26.4533 20.4027 26.4673 20.3985C26.4725 20.397 26.4769 20.3957 26.4799 20.3957C26.4859 20.3957 26.4906 20.3957 26.4951 20.3952C26.5088 20.3935 26.5222 20.3887 26.536 20.3887C26.543 20.3887 26.55 20.3887 26.557 20.3887C26.564 20.3887 26.571 20.3887 26.578 20.3887C26.585 20.3887 26.5921 20.3887 26.5991 20.3887C26.6061 20.3887 26.6131 20.3887 26.6201 20.3887C26.6271 20.3887 26.6341 20.3887 26.6411 20.3887C26.6481 20.3887 26.6551 20.3887 26.6621 20.3887C26.6691 20.3887 26.6761 20.3887 26.6831 20.3887C26.6902 20.3887 26.6972 20.3887 26.7042 20.3887C26.7112 20.3887 26.7182 20.3887 26.7252 20.3887C26.7488 20.3887 26.7717 20.4027 26.7953 20.4027C26.7998 20.4027 26.8044 20.4027 26.809 20.4047C26.8142 20.4069 26.8195 20.4097 26.8252 20.4097H26.8276C26.8294 20.4097 26.8311 20.4102 26.8327 20.4109C26.8445 20.4159 26.8603 20.4169 26.8729 20.4211C26.8745 20.4217 26.8846 20.4238 26.8864 20.4238C26.8877 20.4238 26.889 20.4238 26.8902 20.4238C26.8979 20.4241 26.9066 20.4308 26.9144 20.4308C26.9291 20.4308 26.9421 20.4414 26.9555 20.4475C26.9583 20.4487 26.9611 20.45 26.9641 20.4512C26.9774 20.4567 26.9905 20.465 27.0049 20.4658C27.0051 20.4658 27.0053 20.4658 27.0055 20.4658C27.0065 20.4658 27.0075 20.466 27.0085 20.4662C27.0165 20.4683 27.0246 20.4729 27.0311 20.478C27.0331 20.4797 27.0352 20.4817 27.0373 20.4837C27.0394 20.4857 27.0403 20.4864 27.043 20.4873C27.0469 20.4886 27.0498 20.495 27.0534 20.497C27.0642 20.5029 27.0774 20.5114 27.0885 20.5176C27.0938 20.5206 27.098 20.5238 27.1026 20.5277C27.114 20.5374 27.1305 20.5419 27.141 20.5524C27.1426 20.554 27.1441 20.5555 27.1456 20.557C27.1526 20.564 27.1596 20.571 27.1666 20.578C27.1736 20.5851 27.1806 20.5921 27.1877 20.5991C27.1947 20.6061 27.2017 20.6131 27.2087 20.6201C27.2227 20.6341 27.2367 20.6482 27.2507 20.6622C27.2529 20.6643 27.255 20.6665 27.2572 20.6686C27.2668 20.6783 27.2748 20.6896 27.283 20.7005C27.2883 20.7078 27.294 20.715 27.2981 20.7222C27.2993 20.7242 27.2998 20.7265 27.2998 20.7288C27.2998 20.7311 27.3003 20.7334 27.3014 20.7354C27.3069 20.7459 27.3154 20.7593 27.322 20.7708C27.326 20.7777 27.331 20.7843 27.3346 20.7914C27.3385 20.7993 27.3437 20.8066 27.3474 20.8145L27.3671 20.8573C27.3782 20.8815 27.3869 20.9067 27.3913 20.9329C27.3951 20.9556 27.3979 20.9793 27.3979 21.0058V25.5931C27.3979 25.9995 27.7273 26.3289 28.1336 26.3289C28.3228 26.3289 28.519 26.2728 28.6591 26.1535C28.7993 26.0413 28.8694 25.894 28.8764 25.7398V24.4914L28.8483 23.2431Z" fill="#EE0033"/>
</svg>
