<svg width="24" height="24" viewBox="0 0 24 24" fill="none" xmlns="http://www.w3.org/2000/svg">
<path d="M12.0671 12.3924C13.4859 12.3924 14.7162 11.8815 15.7214 10.8702C16.7266 9.85884 17.2345 8.62628 17.2345 7.19357C17.2345 5.76613 16.7266 4.52831 15.7214 3.51699C14.7162 2.51093 13.4859 2 12.0671 2C10.6483 2 9.41797 2.51093 8.41277 3.52225C7.40756 4.53358 6.89973 5.76613 6.89973 7.19357C6.89973 8.62102 7.40756 9.85884 8.41277 10.8702C9.41797 11.8815 10.6483 12.3924 12.0671 12.3924ZM9.30279 4.4177C10.0724 3.6434 10.9781 3.26416 12.0671 3.26416C13.1561 3.26416 14.0618 3.6434 14.8314 4.4177C15.601 5.19199 15.978 6.10324 15.978 7.19884C15.978 8.29444 15.601 9.20569 14.8314 9.97998C14.0618 10.7543 13.1561 11.1335 12.0671 11.1335C10.9781 11.1335 10.0724 10.7543 9.30279 9.97998C8.53318 9.20569 8.15623 8.29444 8.15623 7.19884C8.15623 6.10324 8.53318 5.19199 9.30279 4.4177Z" fill="#73777A"/>
<path d="M20.5956 15.8583C20.4543 15.4211 20.271 14.9945 20.0354 14.5784C19.7946 14.1517 19.5119 13.7777 19.1925 13.4722C18.8575 13.1509 18.4491 12.8928 17.9779 12.7032C17.5067 12.5136 16.9884 12.4188 16.4282 12.4188C16.2083 12.4188 15.9989 12.5083 15.5906 12.7769C15.3393 12.9402 15.0461 13.1351 14.7162 13.3458C14.4335 13.5249 14.0566 13.6934 13.5854 13.8462C13.1247 13.9937 12.6587 14.0727 12.2032 14.0727C11.7425 14.0727 11.2766 13.9989 10.8211 13.8462C10.3499 13.6934 9.97293 13.5249 9.69022 13.3458C9.36562 13.1351 9.07243 12.9455 8.8159 12.7769C8.40753 12.5083 8.19812 12.4188 7.97823 12.4188C7.41804 12.4188 6.89973 12.5136 6.42854 12.7032C5.95735 12.8928 5.54898 13.1509 5.21391 13.4722C4.89455 13.7777 4.61184 14.1517 4.37101 14.5784C4.14065 14.9892 3.95217 15.4211 3.81082 15.8583C3.66946 16.2797 3.25586 17.8494 3.25586 18.2865C3.25586 19.4137 3.61187 20.325 4.31342 20.9992C5.0045 21.6629 5.92593 22 7.04108 22H17.3654C18.4805 22 19.3967 21.6629 20.093 20.9992C20.7946 20.325 21.1506 19.4137 21.1506 18.2865C21.1454 17.8494 20.7318 16.2797 20.5956 15.8583ZM19.224 20.0774C18.7685 20.5146 18.1559 20.7306 17.3654 20.7306H7.03585C6.2453 20.7306 5.63275 20.5199 5.17727 20.0774C4.72702 19.6455 4.50713 19.0608 4.50713 18.2813C4.50713 17.8757 4.87885 16.6063 4.99926 16.2376C5.10921 15.8846 5.26627 15.537 5.45474 15.1999C5.63798 14.8786 5.8474 14.6047 6.07776 14.3835C6.29242 14.178 6.56466 14.0042 6.88402 13.8778C7.18244 13.7619 7.51227 13.6934 7.87352 13.6882C7.9154 13.7092 7.99393 13.7566 8.12482 13.8409C8.38136 14.0095 8.67978 14.2044 9.00961 14.4151C9.38133 14.6521 9.85775 14.8681 10.4284 15.0524C11.0148 15.242 11.6064 15.3368 12.198 15.3368C12.7896 15.3368 13.3864 15.242 13.9676 15.0524C14.5382 14.8681 15.0147 14.6521 15.3864 14.4151C15.7214 14.1991 16.0146 14.0095 16.2712 13.8409C16.3968 13.7566 16.4753 13.7145 16.5225 13.6882C16.8837 13.6987 17.2188 13.7619 17.512 13.8778C17.8313 14.0042 18.1036 14.1728 18.3182 14.3835C18.5486 14.6047 18.758 14.8786 18.9412 15.1999C19.1297 15.537 19.2868 15.8846 19.3967 16.2376C19.5119 16.6063 19.8889 17.8757 19.8889 18.2813C19.8889 19.0608 19.6742 19.6508 19.224 20.0774Z" fill="#73777A"/>
<path d="M12.0671 12.3924C13.4859 12.3924 14.7162 11.8815 15.7214 10.8702C16.7266 9.85884 17.2345 8.62628 17.2345 7.19357C17.2345 5.76613 16.7266 4.52831 15.7214 3.51699C14.7162 2.51093 13.4859 2 12.0671 2C10.6483 2 9.41797 2.51093 8.41277 3.52225C7.40756 4.53358 6.89973 5.76613 6.89973 7.19357C6.89973 8.62102 7.40756 9.85884 8.41277 10.8702C9.41797 11.8815 10.6483 12.3924 12.0671 12.3924ZM9.30279 4.4177C10.0724 3.6434 10.9781 3.26416 12.0671 3.26416C13.1561 3.26416 14.0618 3.6434 14.8314 4.4177C15.601 5.19199 15.978 6.10324 15.978 7.19884C15.978 8.29444 15.601 9.20569 14.8314 9.97998C14.0618 10.7543 13.1561 11.1335 12.0671 11.1335C10.9781 11.1335 10.0724 10.7543 9.30279 9.97998C8.53318 9.20569 8.15623 8.29444 8.15623 7.19884C8.15623 6.10324 8.53318 5.19199 9.30279 4.4177Z" stroke="#73777A" stroke-width="0.2"/>
<path d="M20.5956 15.8583C20.4543 15.4211 20.271 14.9945 20.0354 14.5784C19.7946 14.1517 19.5119 13.7777 19.1925 13.4722C18.8575 13.1509 18.4491 12.8928 17.9779 12.7032C17.5067 12.5136 16.9884 12.4188 16.4282 12.4188C16.2083 12.4188 15.9989 12.5083 15.5906 12.7769C15.3393 12.9402 15.0461 13.1351 14.7162 13.3458C14.4335 13.5249 14.0566 13.6934 13.5854 13.8462C13.1247 13.9937 12.6587 14.0727 12.2032 14.0727C11.7425 14.0727 11.2766 13.9989 10.8211 13.8462C10.3499 13.6934 9.97293 13.5249 9.69022 13.3458C9.36562 13.1351 9.07243 12.9455 8.8159 12.7769C8.40753 12.5083 8.19812 12.4188 7.97823 12.4188C7.41804 12.4188 6.89973 12.5136 6.42854 12.7032C5.95735 12.8928 5.54898 13.1509 5.21391 13.4722C4.89455 13.7777 4.61184 14.1517 4.37101 14.5784C4.14065 14.9892 3.95217 15.4211 3.81082 15.8583C3.66946 16.2797 3.25586 17.8494 3.25586 18.2865C3.25586 19.4137 3.61187 20.325 4.31342 20.9992C5.0045 21.6629 5.92593 22 7.04108 22H17.3654C18.4805 22 19.3967 21.6629 20.093 20.9992C20.7946 20.325 21.1506 19.4137 21.1506 18.2865C21.1454 17.8494 20.7318 16.2797 20.5956 15.8583ZM19.224 20.0774C18.7685 20.5146 18.1559 20.7306 17.3654 20.7306H7.03585C6.2453 20.7306 5.63275 20.5199 5.17727 20.0774C4.72702 19.6455 4.50713 19.0608 4.50713 18.2813C4.50713 17.8757 4.87885 16.6063 4.99926 16.2376C5.10921 15.8846 5.26627 15.537 5.45474 15.1999C5.63798 14.8786 5.8474 14.6047 6.07776 14.3835C6.29242 14.178 6.56466 14.0042 6.88402 13.8778C7.18244 13.7619 7.51227 13.6934 7.87352 13.6882C7.9154 13.7092 7.99393 13.7566 8.12482 13.8409C8.38136 14.0095 8.67978 14.2044 9.00961 14.4151C9.38133 14.6521 9.85775 14.8681 10.4284 15.0524C11.0148 15.242 11.6064 15.3368 12.198 15.3368C12.7896 15.3368 13.3864 15.242 13.9676 15.0524C14.5382 14.8681 15.0147 14.6521 15.3864 14.4151C15.7214 14.1991 16.0146 14.0095 16.2712 13.8409C16.3968 13.7566 16.4753 13.7145 16.5225 13.6882C16.8837 13.6987 17.2188 13.7619 17.512 13.8778C17.8313 14.0042 18.1036 14.1728 18.3182 14.3835C18.5486 14.6047 18.758 14.8786 18.9412 15.1999C19.1297 15.537 19.2868 15.8846 19.3967 16.2376C19.5119 16.6063 19.8889 17.8757 19.8889 18.2813C19.8889 19.0608 19.6742 19.6508 19.224 20.0774Z" stroke="#73777A" stroke-width="0.2"/>
</svg>
